HIERARCHY
ROOT Hips
{
  OFFSET 53.8522 58.6283 -14.0141
  CHANNELS 6 Xposition Yposition Zposition Zrotation Xrotation Yrotation
  JOINT spine
  {
    OFFSET 0 7.4756 0.429885
    CHANNELS 3 Zrotation Xrotation Yrotation
    JOINT spine1
    {
      OFFSET 0 9.92301 0
      CHANNELS 3 Zrotation Xrotation Yrotation
      JOINT spine2
      {
        OFFSET 0 9.50804 0
        CHANNELS 3 Zrotation Xrotation Yrotation
        JOINT Neck
        {
          OFFSET 0 24.4111 1.16384
          CHANNELS 3 Zrotation Xrotation Yrotation
          JOINT Head
          {
            OFFSET 0 7.37523 0
            CHANNELS 3 Zrotation Xrotation Yrotation
            End Site
            {
              OFFSET 0 17.8522 -5.88741
            }
          }
        }
        JOINT RightShoulder
        {
          OFFSET -4.00356 10.2679 -0.557468
          CHANNELS 3 Zrotation Xrotation Yrotation
          JOINT RightArm
          {
            OFFSET 0 13.4673 0
            CHANNELS 3 Zrotation Xrotation Yrotation
            JOINT RightArmRoll
            {
              OFFSET 0 6.79858 0
              CHANNELS 3 Zrotation Xrotation Yrotation
              JOINT RightForeArm
              {
                OFFSET 0 19.8018 0
                CHANNELS 3 Zrotation Xrotation Yrotation
                JOINT RightForeArmRoll
                {
                  OFFSET 0 7.62905 0
                  CHANNELS 3 Zrotation Xrotation Yrotation
                  JOINT RightHand
                  {
                    OFFSET 0 15.3098 0
                    CHANNELS 3 Zrotation Xrotation Yrotation
                    End Site
                    {
                      OFFSET 0 0 0
                    }
                  }
                }
              }
            }
          }
        }
        JOINT LeftShoulder
        {
          OFFSET 4.00356 10.2679 -0.557468
          CHANNELS 3 Zrotation Xrotation Yrotation
          JOINT LeftArm
          {
            OFFSET 0 13.4673 0
            CHANNELS 3 Zrotation Xrotation Yrotation
            JOINT LeftArmRoll
            {
              OFFSET 0 6.79858 0
              CHANNELS 3 Zrotation Xrotation Yrotation
              JOINT LeftForeArm
              {
                OFFSET 0 19.8018 0
                CHANNELS 3 Zrotation Xrotation Yrotation
                JOINT LeftForeArmRoll
                {
                  OFFSET 0 7.62905 0
                  CHANNELS 3 Zrotation Xrotation Yrotation
                  JOINT LeftHand
                  {
                    OFFSET 0 15.3098 0
                    CHANNELS 3 Zrotation Xrotation Yrotation
                    End Site
                    {
                      OFFSET 0 0 0
                    }
                  }
                }
              }
            }
          }
        }
      }
    }
  }
  JOINT RightUpLeg
  {
    OFFSET -6.62609 -1.21505 -1.01927
    CHANNELS 3 Zrotation Xrotation Yrotation
    JOINT RightUpLegRoll
    {
      OFFSET 0 17.9517 0
      CHANNELS 3 Zrotation Xrotation Yrotation
      JOINT RightLeg
      {
        OFFSET 0 -22.2304 0
        CHANNELS 3 Zrotation Xrotation Yrotation
        JOINT RightLegRoll
        {
          OFFSET 0 22.3032 0
          CHANNELS 3 Zrotation Xrotation Yrotation
          JOINT RightFoot
          {
            OFFSET 0 18.5636 0
            CHANNELS 3 Zrotation Xrotation Yrotation
            JOINT RightToeBase
            {
              OFFSET 0 15.5183 0
              CHANNELS 3 Zrotation Xrotation Yrotation
              End Site
              {
                OFFSET 0.00657761 7.51539 -0.866262
              }
            }
          }
        }
      }
    }
  }
  JOINT LeftUpLeg
  {
    OFFSET 6.62609 -1.21505 -1.01927
    CHANNELS 3 Zrotation Xrotation Yrotation
    JOINT LeftUpLegRoll
    {
      OFFSET 0 17.9518 0
      CHANNELS 3 Zrotation Xrotation Yrotation
      JOINT LeftLeg
      {
        OFFSET 0 22.2303 0
        CHANNELS 3 Zrotation Xrotation Yrotation
        JOINT LeftLegRoll
        {
          OFFSET 0 22.5093 0
          CHANNELS 3 Zrotation Xrotation Yrotation
          JOINT LeftFoot
          {
            OFFSET 0 18.3575 0
            CHANNELS 3 Zrotation Xrotation Yrotation
            JOINT LeftToeBase
            {
              OFFSET 0 15.5183 0
              CHANNELS 3 Zrotation Xrotation Yrotation
              End Site
              {
                OFFSET -0.029478 7.51538 -0.866263
              }
            }
          }
        }
      }
    }
  }
}
MOTION
Frames: 5
Frame Time: 0.00208333
59.0707 93.9996 22.204 -1.37742 -2.89992 -1.12775 0.199656 -1.70336 -0.0250002 0.387223 0.57277 -0.0694732 0.388329 2.21782 -0.0758511 -4.43566 22.8762 -0.0664754 7.19586 -3.48444 -0.670213 75.3492 -1.45192 -2.54528 94.2334 21.8438 22.9262 4.73604e-007 -1.87012e-007 -3.44449e-006 3.7738 0.0301997 -1.49076 7.69508e-006 -2.34584e-006 -3.09812 8.02977 -4.9514 0.697645 -71.786 -1.89758 2.42101 -102.824 17.8872 -25.7601 -6.75584e-007 2.63043e-006 3.20017e-006 4.05007 -0.019559 0.808223 -6.38172e-006 2.74265e-006 3.05044 -8.03007 -4.95138 -0.697601 -179.204 -1.10206 -1.31301 180 7.0156e-015 178.982 177.626 4.52715 179.817 -1.73508e-006 -1.14918e-006 0.0459977 -18.6636 68.0527 19.5872 8.13215 25.2329 -3.48589 -176.486 1.44069 1.8102 4.54188e-006 -4.6773e-006 -1.01882 -2.12423 -6.63259 0.0785725 3.6371e-006 -3.06056e-006 -0.0972259 18.9891 68.4635 -19.9365 -8.12833 25.2331 3.48426 
59.0722 94.0035 22.1869 -1.37561 -2.87161 -1.14331 0.198238 -1.70513 -0.0254743 0.385301 0.570908 -0.0703302 0.38641 2.21596 -0.0766857 -4.42283 22.8942 -0.0712658 7.19022 -3.48584 -0.671289 75.3453 -1.45227 -2.54508 94.2366 21.8951 22.9039 4.73604e-007 -1.87012e-007 -3.44449e-006 3.78147 0.030219 -1.49081 7.69508e-006 -2.34584e-006 -3.09812 8.02977 -4.9514 0.697645 -71.7782 -1.92252 2.43205 -102.83 17.9283 -25.748 -6.75584e-007 2.63043e-006 3.20017e-006 4.05365 -0.0195589 0.808224 -6.38172e-006 2.74265e-006 3.05029 -8.03007 -4.95138 -0.697601 -179.205 -1.05284 -1.31758 180 7.0156e-015 178.983 177.625 4.53739 179.818 -1.73508e-006 -1.14918e-006 0.0459972 -18.6638 68.053 19.5875 8.13215 25.2329 -3.48589 -176.492 1.48835 1.81863 4.54188e-006 -4.6773e-006 -1.01875 -2.11885 -6.64335 0.078811 3.6371e-006 -3.06056e-006 -0.0972259 18.9918 68.4666 -19.9395 -8.12833 25.2331 3.48426 
59.063 94.0027 22.1658 -1.37364 -2.8433 -1.15876 0.196774 -1.70709 -0.0260231 0.383363 0.568709 -0.0713417 0.384477 2.21376 -0.077675 -4.41101 22.9141 -0.0757179 7.18557 -3.48829 -0.672237 75.3406 -1.45242 -2.54473 94.2404 21.9464 22.8816 4.73604e-007 -1.87012e-007 -3.44449e-006 3.789 0.0302346 -1.49088 7.69508e-006 -2.34584e-006 -3.09812 8.02977 -4.9514 0.697645 -71.7712 -1.94785 2.44334 -102.834 17.9693 -25.737 -6.75584e-007 2.63043e-006 3.20017e-006 4.05758 -0.0195588 0.808226 -6.38172e-006 2.74265e-006 3.05013 -8.03007 -4.95138 -0.697601 -179.206 -1.00375 -1.32201 180 7.0156e-015 178.983 177.623 4.54754 179.819 -1.73508e-006 -1.14918e-006 0.0459942 -18.664 68.0532 19.5877 8.13215 25.2329 -3.48589 -176.497 1.53604 1.82704 4.54188e-006 -4.6773e-006 -1.01872 -2.11355 -6.65432 0.0790297 3.6371e-006 -3.06056e-006 -0.0972259 18.9948 68.47 -19.9426 -8.12833 25.2331 3.48426 
59.0587 94.0009 22.1456 -1.37153 -2.81499 -1.17413 0.195276 -1.7092 -0.0266242 0.381413 0.566274 -0.0724613 0.382534 2.21133 -0.0787726 -4.3999 22.9356 -0.0799334 7.1816 -3.49147 -0.673096 75.3353 -1.45242 -2.54427 94.2448 21.9976 22.8593 4.73604e-007 -1.87012e-007 -3.44449e-006 3.79642 0.0302478 -1.49097 7.69508e-006 -2.34584e-006 -3.09812 8.02977 -4.9514 0.697645 -71.7647 -1.97344 2.45481 -102.837 18.0104 -25.7268 -6.75584e-007 2.63043e-006 3.20017e-006 4.06175 -0.0195587 0.808227 -6.38172e-006 2.74265e-006 3.04998 -8.03007 -4.95138 -0.697601 -179.207 -0.954747 -1.32635 180 7.0156e-015 178.983 177.621 4.55763 179.819 -1.73508e-006 -1.14918e-006 0.0459896 -18.6641 68.0534 19.5879 8.13215 25.2329 -3.48589 -176.503 1.58374 1.83544 4.54188e-006 -4.6773e-006 -1.0187 -2.10833 -6.66545 0.0792344 3.6371e-006 -3.06056e-006 -0.0972259 18.9978 68.4735 -19.946 -8.12833 25.2331 3.48426 
59.0585 94.0028 22.1299 -1.36935 -2.78668 -1.18946 0.193759 -1.71138 -0.027255 0.379457 0.563705 -0.0736428 0.380585 2.20876 -0.079932 -4.3892 22.9578 -0.0840145 7.17804 -3.49507 -0.673904 75.3298 -1.45234 -2.54374 94.2494 22.0488 22.837 4.73604e-007 -1.87012e-007 -3.44449e-006 3.80379 0.0302595 -1.49107 7.69508e-006 -2.34584e-006 -3.09811 8.02977 -4.9514 0.697645 -71.7586 -1.99919 2.46638 -102.84 18.0514 -25.717 -6.75584e-007 2.63043e-006 3.20017e-006 4.06606 -0.0195586 0.808229 -6.38172e-006 2.74265e-006 3.04983 -8.03007 -4.95138 -0.697601 -179.208 -0.905797 -1.33062 180 7.0156e-015 178.983 177.619 4.5677 179.82 -1.73508e-006 -1.14918e-006 0.045984 -18.6642 68.0535 19.588 8.13215 25.2329 -3.48589 -176.508 1.63145 1.84384 4.54188e-006 -4.6773e-006 -1.0187 -2.10314 -6.67666 0.0794313 3.6371e-006 -3.06056e-006 -0.0972259 19.001 68.4771 -19.9494 -8.12833 25.2331 3.48426 
